<svg width="80" height="80" viewBox="0 0 80 80" fill="none" xmlns="http://www.w3.org/2000/svg">
<g opacity="0.8" clip-path="url(#clip0_22_68)">
<path fill-rule="evenodd" clip-rule="evenodd" d="M16.0509 63.4341L28.8825 59.7134L39.9653 79.9777C39.9798 80.0039 40.0175 80.0039 40.0319 79.9777L51.1147 59.7134L63.9464 63.4341C63.9752 63.4423 64.0019 63.4156 63.9933 63.3869L60.272 50.8092L79.9775 40.0319C80.0039 40.0175 80.0039 39.9798 79.9777 39.9655L60.1097 29.0992L63.9933 15.9727C64.0019 15.9439 63.9752 15.9172 63.9464 15.9255L50.8138 19.7334L40.0319 0.0197169C40.0175 -0.00657182 39.9798 -0.00657256 39.9655 0.0197163L29.1836 19.7334L16.0509 15.9255C16.0222 15.9172 15.9955 15.9439 16.0041 15.9727L19.8877 29.0992L0.0197169 39.9655C-0.00657182 39.9798 -0.00657256 40.0175 0.0197163 40.0319L19.7252 50.8092L16.0041 63.3869C15.9955 63.4156 16.0222 63.4423 16.0509 63.4341ZM26.0081 40.1369L35.0986 45.1086L40.0703 54.1989C40.0847 54.2253 40.1225 54.2253 40.1369 54.1989L45.1086 45.1086L54.1989 40.1369C54.2252 40.1225 54.2252 40.0847 54.1989 40.0703L45.1086 35.0986L40.1369 26.0083C40.1225 25.9819 40.0847 25.9819 40.0703 26.0083L35.0986 35.0986L26.0081 40.0703C25.9819 40.0847 25.9819 40.1225 26.0081 40.1369Z" fill="white"/>
</g>
<defs>
<clipPath id="clip0_22_68">
<rect width="80" height="80" fill="white"/>
</clipPath>
</defs>
</svg>
