<svg width="80" height="80" viewBox="0 0 80 80" fill="none" xmlns="http://www.w3.org/2000/svg">
<g opacity="0.8">
<path fill-rule="evenodd" clip-rule="evenodd" d="M13.7865 6.65088C14.7547 2.82834 18.2177 0 22.3411 0C25.4341 0 28.1555 1.59136 29.7311 4H32.3113C33.9142 2.35494 36.1537 1.33333 38.632 1.33333C42.2655 1.33333 45.3861 3.52941 46.7389 6.66667H48.8991C50.2527 5.82164 51.852 5.33333 53.5653 5.33333C57.1989 5.33333 60.3194 7.52941 61.6722 10.6667H67.5464C67.5966 10.6667 67.6436 10.6802 67.6841 10.7038C67.9523 10.6792 68.2241 10.6667 68.4986 10.6667C73.3722 10.6667 77.3228 14.6174 77.3228 19.4909V45.9509L77.323 46L77.3228 46.0491V46.4302C77.3228 46.5916 77.3184 46.7523 77.3097 46.9123C76.7788 65.2683 60.2733 80 39.9895 80C19.3709 80 2.65625 64.7777 2.65625 46C2.65625 36.9361 6.55077 28.7005 12.899 22.6055C12.8832 31.4419 13.0324 40.5772 13.7204 40.4205C15.5627 40.0005 14.1233 12.6312 13.7865 6.65088Z" fill="white"/>
</g>
</svg>
