<svg width="80" height="80" viewBox="0 0 80 80" fill="none" xmlns="http://www.w3.org/2000/svg">
<g opacity="0.8">
<path fill-rule="evenodd" clip-rule="evenodd" d="M55.0403 61.7803C56.0287 58.1661 54.1101 50.7359 54.1101 50.7359C54.1101 50.7359 52.7186 56.7889 50.5442 59.0261C48.6892 60.9344 46.4166 62.258 43.1572 62.6058C45.822 61.3114 47.6547 58.6125 47.6547 55.493C47.6547 51.1139 44.0434 47.5639 39.5887 47.5639C35.1341 47.5639 31.5226 51.1139 31.5226 55.493C31.5226 56.6889 31.7922 57.8231 32.2745 58.84C29.4883 56.6203 29.0501 53.0616 29.0501 53.0616C29.0501 53.0616 25.9389 65.9788 34.5117 72.055C43.0844 78.1312 59.878 72.9084 59.878 72.9084C59.878 72.9084 35.8453 89.8183 18.0369 71.4141C2.69637 55.56 14.033 34.688 14.033 34.688C14.033 34.688 13.5434 36.6242 13.5434 38.8719C13.5434 41.1195 14.762 42.8297 14.762 42.8297C14.762 42.8297 18.3972 35.1673 21.2262 32.0513C23.9037 29.1022 27.2601 26.7103 30.1592 24.6444C32.3908 23.0541 34.3514 21.6569 35.5223 20.3473C41.9719 13.1357 38.0173 0 38.0173 0C38.0173 0 45.2876 6.40938 47.3173 14.6872C48.0911 17.8425 47.5933 21.4327 47.1483 24.6431C46.4258 29.855 45.8419 34.0664 51.0614 33.7931C59.4961 33.3514 52.1666 20.3473 52.1666 20.3473C52.1666 20.3473 71.2997 30.4036 69.8703 47.9914C68.4408 65.5792 48.9569 69.5777 48.9569 69.5777C48.9569 69.5777 54.0517 65.3945 55.0403 61.7803Z" fill="white"/>
</g>
</svg>
