<svg width="80" height="80" viewBox="0 0 80 80" fill="none" xmlns="http://www.w3.org/2000/svg">
<g opacity="0.8">
<path fill-rule="evenodd" clip-rule="evenodd" d="M27.9238 74.6458C39.643 74.6458 49.6761 68.1325 53.8181 58.8994C53.8688 58.7867 37.1886 63.2342 37.7205 61.662C37.958 60.96 48.183 57.2247 55.6325 52.8678C59.9142 50.3636 61.8859 45.0625 61.8859 45.0625C61.8859 45.0625 54.6723 48.5648 51.0256 49.4533C43.6769 51.2439 37.208 51.0511 37.208 50.8645C37.208 50.4611 47.9494 48.4202 62.8788 39.3225C69.9011 35.0433 71.8084 27.6723 71.8084 27.6723C71.8084 27.6723 64.088 32.2711 59.4208 33.7894C48.3527 37.3898 38.2523 38.4748 38.2523 37.9877C38.2523 36.9445 47.1409 34.5003 56.565 29.9339C61.465 27.5597 65.7086 24.4578 70.6263 21.0083C78.6728 15.3644 79.9998 5.3125 79.9998 5.3125C79.9998 5.3125 72.0636 10.4313 68.1906 12.1312C52.2095 19.1455 38.0983 22.8248 27.9238 23.6214C12.565 24.8239 0 35.54 0 49.4533C0 63.3667 12.5019 74.6458 27.9238 74.6458Z" fill="white"/>
</g>
</svg>
