<svg width="80" height="80" viewBox="0 0 80 80" fill="none" xmlns="http://www.w3.org/2000/svg">
<g opacity="0.8" clip-path="url(#clip0_22_80)">
<path fill-rule="evenodd" clip-rule="evenodd" d="M57.6488 79.723C50.4327 80.0923 42.1712 80.0923 39.3638 79.723C17.4641 76.8419 0 60.8302 0 39.1875C0 17.5448 17.9086 0 40 0C62.0914 0 80 17.5448 80 39.1875C80 49.2533 76.1261 58.4327 69.7594 65.373C68.0305 67.2575 70.4027 68.5794 72.8128 69.9225C75.1766 71.2398 77.5769 72.5775 76.1819 74.4863C74.6447 76.5895 66.3112 79.2795 57.6488 79.723ZM34.375 34.2891C34.375 37.6706 31.5767 40.412 28.125 40.412C24.6733 40.412 21.875 37.6706 21.875 34.2891C21.875 32.0211 23.1336 30.0413 25.0037 28.983C25.1114 31.9316 27.5358 34.2889 30.5108 34.2889H34.375V34.2891ZM53.7463 28.983C53.6386 31.9316 51.2142 34.2889 48.2392 34.2889H44.375V34.2891C44.375 37.6706 47.1733 40.412 50.625 40.412C54.0767 40.412 56.875 37.6706 56.875 34.2891C56.875 32.0211 55.6164 30.0413 53.7463 28.983Z" fill="white"/>
</g>
<defs>
<clipPath id="clip0_22_80">
<rect width="80" height="80" fill="white"/>
</clipPath>
</defs>
</svg>
