<svg width="80" height="80" viewBox="0 0 80 80" fill="none" xmlns="http://www.w3.org/2000/svg">
<g opacity="0.8">
<path fill-rule="evenodd" clip-rule="evenodd" d="M15.2206 68.8513C14.946 68.593 14.6744 68.3297 14.406 68.0613C0.236565 53.8919 0.236567 30.9186 14.406 16.7493C28.5754 2.57976 73.7248 1.63184 73.7248 1.63184C73.7248 1.63184 79.8876 53.8919 65.7182 68.0613C53.1339 80.6457 33.6054 82.0535 19.4674 72.2849L30.8593 58.3051L49.0703 54.3733L34.2048 52.8872L43.652 43.2682L54.4057 40.9124L45.9023 38.3941L54.4057 23.0541L42.3104 36.621L37.6396 30.0299L39.2839 40.9124L30.8593 50.4096L26.9542 38.394V54.3733L15.2206 68.8513Z" fill="white"/>
</g>
</svg>
