<svg width="80" height="80" viewBox="0 0 80 80" fill="none" xmlns="http://www.w3.org/2000/svg">
<g opacity="0.8" clip-path="url(#clip0_22_54)">
<path fill-rule="evenodd" clip-rule="evenodd" d="M66.847 61.4764C74.9256 55.0169 80 45.6838 80 35.3047C80 15.8064 62.0914 0 40 0C17.9086 0 0 15.8064 0 35.3047C0 45.3091 4.71464 54.3416 12.2899 60.7658C11.8308 62.3509 11.5789 64.0752 11.5789 65.8781C11.5789 73.6773 16.2917 80 22.1053 80C25.8828 80 29.1956 77.3305 31.0527 73.3209C32.9097 77.3305 36.2225 80 40 80C43.4434 80 46.5006 77.7819 48.4211 74.3527C50.3416 77.7819 53.3988 80 56.842 80C62.6556 80 67.3684 73.6773 67.3684 65.8781C67.3684 64.3412 67.1853 62.8616 66.847 61.4764ZM63.158 36.0048C63.158 45.9039 52.5541 53.9288 39.4738 53.9288C26.3933 53.9288 15.7895 45.9039 15.7895 36.0048C15.7895 26.1058 26.3933 18.0809 39.4738 18.0809C52.5541 18.0809 63.158 26.1058 63.158 36.0048Z" fill="white"/>
</g>
<defs>
<clipPath id="clip0_22_54">
<rect width="80" height="80" fill="white"/>
</clipPath>
</defs>
</svg>
