<svg width="80" height="80" viewBox="0 0 80 80" fill="none" xmlns="http://www.w3.org/2000/svg">
<g opacity="0.8" clip-path="url(#clip0_22_56)">
<path fill-rule="evenodd" clip-rule="evenodd" d="M71.2383 66.435C71.2383 66.435 61.1508 74.5255 41.077 71.1775C25.8473 68.6373 17.7245 51.8489 17.7245 42.8248C17.7245 21.4295 33.5598 16.5606 44.2656 16.5606C54.9712 16.5606 61.9552 26.9981 61.9552 35.0794C61.9552 43.1606 56.2395 50.2291 47.3447 50.2291C38.45 50.2291 35.8156 43.9845 35.8156 38.2434C35.8156 32.5025 40.4605 30.4798 44.6966 30.4798C48.9327 30.4798 50.3831 34.0964 50.3831 37.2047C50.3831 40.3131 47.9714 41.4262 45.9598 41.4262C43.9483 41.4262 43.7494 40.4114 42.9795 39.3448C42.2095 38.2784 43.9614 34.2416 41.077 34.2416C38.1927 34.2416 37.655 38.8823 37.655 38.8823C37.655 38.8823 38.7066 47.8406 47.3447 47.6861C55.983 47.5314 60.0809 40.8533 58.89 34.2416C57.6991 27.6297 51.2823 20.6039 40.0208 22.0236C28.7592 23.4433 24.1612 34.822 26.188 46.982C28.2147 59.1422 42.7823 66.1878 54.2362 63.653C65.6903 61.1181 77.0983 52.8259 77.0983 31.802C77.0983 10.778 58.89 -1.8594 37.1783 0.223303C15.4665 2.306 1.9889 21.2878 2.85159 44.0948C3.71428 66.9019 25.3555 79.3233 43.6553 79.9634C61.9552 80.6038 73.1737 70.0105 73.1737 70.0105C73.1737 70.0105 75.6967 67.7606 74.7075 66.0038C73.7184 64.2469 71.2383 66.435 71.2383 66.435Z" fill="white"/>
</g>
<defs>
<clipPath id="clip0_22_56">
<rect width="80" height="80" fill="white"/>
</clipPath>
</defs>
</svg>
