<svg width="80" height="80" viewBox="0 0 80 80" fill="none" xmlns="http://www.w3.org/2000/svg">
<g opacity="0.8" clip-path="url(#clip0_22_58)">
<path fill-rule="evenodd" clip-rule="evenodd" d="M61.7403 38.2433C61.7358 38.237 61.7339 38.2292 61.7352 38.2216L66.8389 8.46122C66.8413 8.44752 66.8533 8.4375 66.867 8.4375H68.4823C68.4948 8.4375 68.5058 8.44558 68.5095 8.45745L80.008 44.8642C80.0116 44.8755 80.0077 44.888 79.9983 44.8953L71.5203 51.5145C71.5077 51.5244 71.4894 51.5219 71.4798 51.5089L61.7403 38.2433ZM-0.15625 57.9722C-0.15625 57.9845 -0.148313 57.9955 -0.13658 57.9994L17.3398 63.7136C17.3483 63.7164 17.3577 63.715 17.365 63.71L56.4289 36.7412C56.4355 36.7367 56.4398 36.7297 56.4409 36.7219L60.63 8.61381C60.6327 8.59656 60.6192 8.58106 60.6019 8.58106H26.0009C25.9923 8.58106 25.9844 8.58484 25.9789 8.59139L-0.149683 40.1116C-0.153928 40.1167 -0.15625 40.1231 -0.15625 40.1298V57.9722ZM24.6223 65.1695L43.715 71.4238C43.7236 71.4266 43.7331 71.4252 43.7405 71.4198L66.4716 55.1147C66.4842 55.1058 66.4873 55.0884 66.4787 55.0756L57.9575 42.3952C57.9486 42.3819 57.9308 42.3784 57.9177 42.3875L24.6223 65.1695Z" fill="white"/>
</g>
<defs>
<clipPath id="clip0_22_58">
<rect width="80" height="80" fill="white"/>
</clipPath>
</defs>
</svg>
