<svg width="80" height="80" viewBox="0 0 80 80" fill="none" xmlns="http://www.w3.org/2000/svg">
<g opacity="0.8">
<path fill-rule="evenodd" clip-rule="evenodd" d="M0.00798605 39.7698C-0.00265697 39.7517 -0.00266231 39.7292 0.00797181 39.7109L20.1242 5.3413C20.1347 5.32347 20.1539 5.3125 20.1745 5.3125H60.0459C60.0667 5.3125 60.0859 5.32356 60.0964 5.34155L79.992 39.7113C80.0025 39.7292 80.0025 39.7516 79.992 39.7695L60.0964 74.1006C60.0859 74.1186 60.0667 74.1297 60.0459 74.1297H20.1745C20.1539 74.1297 20.1347 74.1188 20.1242 74.1009L0.00798605 39.7698ZM58.5339 39.7211C58.5339 49.9536 50.2388 58.2487 40.0063 58.2487C29.7738 58.2487 21.4786 49.9536 21.4786 39.7211C21.4786 29.4884 29.7738 21.1934 40.0063 21.1934C50.2388 21.1934 58.5339 29.4884 58.5339 39.7211Z" fill="white"/>
</g>
</svg>
