<svg width="80" height="80" viewBox="0 0 80 80" fill="none" xmlns="http://www.w3.org/2000/svg">
<g opacity="0.8">
<path fill-rule="evenodd" clip-rule="evenodd" d="M65.9644 54.143C65.9644 68.4214 54.3458 79.9964 40.0134 79.9964C25.6811 79.9964 14.0625 68.4214 14.0625 54.143C14.0625 40.2561 38.6097 2.11686 39.9559 0.0355953C39.9867 -0.0118654 40.0403 -0.011865 40.0709 0.0355958C41.4172 2.11686 65.9644 40.2561 65.9644 54.143ZM35.6875 71.708C22.5187 68.8266 24.7722 54.2391 24.7722 54.2391C24.7722 54.2391 28.3681 63.045 37.0945 65.8975C45.8208 68.7498 56.3664 64.5664 56.3664 64.5664C56.3664 64.5664 48.8562 74.5892 35.6875 71.708Z" fill="white"/>
</g>
</svg>
